<svg xmlns="http://www.w3.org/2000/svg" viewBox="0 0 24 24" fill="none">
  <g transform="translate(12 12) scale(1.48) translate(-8 -8)">
    <path
      fill="#000000"
      stroke="#000000"
      stroke-width="0.2"
      stroke-linejoin="round"
      d="M9.283,2.03C9.095,2.008 8.921,2.09 8.828,2.199C8.425,2.671 8.332,3.365 8.029,3.901C7.631,4.607 7.259,5.034 6.801,5.436C6.424,5.767 6.042,5.988 5.667,6.091V13.15C6.191,13.161 6.752,13.168 7.333,13.168C8.831,13.168 10.102,13.121 10.958,13.077C11.565,13.045 12.092,12.745 12.366,12.257C12.752,11.572 13.226,10.567 13.514,9.384C13.782,8.281 13.905,7.374 13.959,6.735C13.985,6.439 13.75,6.167 13.387,6.167H10.065C9.898,6.167 9.743,6.084 9.65,5.945C9.536,5.775 9.56,5.583 9.631,5.403C9.784,5.014 9.984,4.433 10.063,3.905C10.141,3.383 10.122,2.964 9.917,2.576C9.697,2.16 9.448,2.05 9.283,2.03ZM10.773,5.167H13.387C14.269,5.167 15.037,5.875 14.956,6.821C14.897,7.506 14.767,8.463 14.486,9.62C14.17,10.917 13.653,12.008 13.238,12.747C12.773,13.574 11.91,14.029 11.01,14.075C10.14,14.12 8.852,14.168 7.333,14.168C5.862,14.168 4.518,14.123 3.565,14.08C2.493,14.031 1.594,13.234 1.479,12.143C1.403,11.426 1.333,10.498 1.333,9.502C1.333,8.589 1.392,7.761 1.46,7.104C1.579,5.957 2.564,5.167 3.672,5.167H5.167C5.379,5.167 5.709,5.063 6.142,4.684C6.517,4.355 6.816,4.016 7.159,3.41C7.502,2.801 7.604,2.092 8.068,1.549C8.372,1.194 8.872,0.976 9.399,1.037C9.95,1.101 10.458,1.458 10.802,2.11C11.149,2.768 11.144,3.436 11.052,4.052C10.994,4.44 10.875,4.852 10.773,5.167ZM4.667,13.122V6.167H3.672C3.03,6.167 2.516,6.615 2.455,7.208C2.389,7.838 2.333,8.63 2.333,9.502C2.333,10.453 2.4,11.345 2.473,12.038C2.534,12.614 3.008,13.053 3.611,13.081C3.923,13.095 4.278,13.109 4.667,13.122Z"
    />
  </g>
</svg>
