<svg xmlns="http://www.w3.org/2000/svg" viewBox="0 0 24 24" fill="none">
  <g transform="scale(0.666667)">
    <path
      fill="#000000"
      fill-rule="evenodd"
      d="M9.772,30.857V11.747H7.546C5.509,11.747 3.857,13.393 3.857,15.425V27.179C3.857,29.211 5.509,30.857 7.546,30.857H9.772ZM11.99,30.857V11.705C14.99,10.627 16.694,7.885 17.106,3.336C17.267,1.555 18.963,0.814 20.58,1.595C22.185,2.37 23.243,4.326 23.243,6.939C23.243,8.503 23.048,10.105 22.658,11.747H29.732C31.774,11.747 33.429,13.402 33.429,15.444C33.429,15.741 33.393,16.039 33.322,16.328L30.988,25.796C30.256,28.768 27.59,30.857 24.528,30.857H11.991H11.99Z"
    />
  </g>
</svg>
